<svg xmlns="http://www.w3.org/2000/svg" width="1280.0" height="1067.9234619140625" viewBox="-4.938272013532696E-13 1740.2838134765625 1280.0 1067.9234619140625" preserveAspectRatio="none">              	  <g>              	    <defs>              	      <path id="s-Union_2-45c13" d="M2.16448974609375 1740.2838134765625 L4.440892098500626E-16 1742.4483642578125 L-9.592326932761353E-14 1792.4483642578125 L0.0 2754.897216796875 L-4.938272013532696E-13 2807.1474609375 L1.059744119644165 2808.207275390625 L14.652191162109375 2794.61474609375 L28.244640350341797 2808.207275390625 L41.83708572387695 2794.61474609375 L55.42953872680664 2808.207275390625 L69.02198791503906 2794.61474609375 L82.61443328857422 2808.207275390625 L96.20687866210938 2794.61474609375 L109.79933166503906 2808.207275390625 L123.39178466796875 2794.61474609375 L136.98423767089844 2808.207275390625 L150.57667541503906 2794.61474609375 L164.16912841796875 2808.207275390625 L177.76156616210938 2794.61474609375 L191.35401916503906 2808.207275390625 L204.9464569091797 2794.61474609375 L218.53892517089844 2808.207275390625 L232.13137817382812 2794.61474609375 L245.72381591796875 2808.207275390625 L259.3162841796875 2794.61474609375 L272.9087219238281 2808.207275390625 L286.50115966796875 2794.61474609375 L300.0935974121094 2808.207275390625 L313.6860656738281 2794.61474609375 L327.2785339355469 2808.207275390625 L340.8709716796875 2794.61474609375 L354.4634094238281 2808.207275390625 L368.05584716796875 2794.61474609375 L381.6482849121094 2808.207275390625 L395.2407531738281 2794.61474609375 L408.8332214355469 2808.207275390625 L422.4256591796875 2794.61474609375 L436.01812744140625 2808.207275390625 L449.610595703125 2794.61474609375 L463.2030029296875 2808.207275390625 L476.7954406738281 2794.61474609375 L490.3879089355469 2808.207275390625 L503.9803771972656 2794.61474609375 L517.5728149414062 2808.207275390625 L531.1652221679688 2794.61474609375 L544.7576904296875 2808.207275390625 L558.3501586914062 2794.61474609375 L571.9425659179688 2808.207275390625 L585.5349731445312 2794.61474609375 L599.12744140625 2808.207275390625 L612.7199096679688 2794.61474609375 L626.3123779296875 2808.207275390625 L639.9048461914062 2794.61474609375 L653.497314453125 2808.207275390625 L667.0897216796875 2794.61474609375 L680.6821899414062 2808.207275390625 L694.274658203125 2794.61474609375 L707.8670654296875 2808.207275390625 L721.4595336914062 2794.61474609375 L735.052001953125 2808.207275390625 L748.6444702148438 2794.61474609375 L762.2369384765625 2808.207275390625 L775.8292846679688 2794.61474609375 L789.4217529296875 2808.207275390625 L803.0142211914062 2794.61474609375 L816.606689453125 2808.207275390625 L830.1991577148438 2794.61474609375 L843.7915649414062 2808.207275390625 L857.384033203125 2794.61474609375 L870.9765014648438 2808.207275390625 L884.56884765625 2794.61474609375 L898.1613159179688 2808.207275390625 L911.7537841796875 2794.61474609375 L925.3462524414062 2808.207275390625 L938.938720703125 2794.61474609375 L952.5311279296875 2808.207275390625 L966.1235961914062 2794.61474609375 L979.716064453125 2808.207275390625 L993.3085327148438 2794.61474609375 L1006.9010009765625 2808.207275390625 L1020.4933471679688 2794.61474609375 L1034.0858154296875 2808.207275390625 L1047.6783447265625 2794.61474609375 L1061.270751953125 2808.207275390625 L1074.86328125 2794.61474609375 L1088.45556640625 2808.207275390625 L1102.048095703125 2794.61474609375 L1115.6405029296875 2808.207275390625 L1129.23291015625 2794.61474609375 L1142.825439453125 2808.207275390625 L1156.4178466796875 2794.61474609375 L1170.0103759765625 2808.207275390625 L1183.602783203125 2794.61474609375 L1197.1951904296875 2808.207275390625 L1210.78759765625 2794.61474609375 L1224.380126953125 2808.207275390625 L1237.9725341796875 2794.61474609375 L1251.5650634765625 2808.207275390625 L1265.157470703125 2794.61474609375 L1278.7498779296875 2808.207275390625 L1280.0 2806.957275390625 L1280.0 1741.3883056640625 L1278.8955078125 1740.2838134765625 L1265.313232421875 1753.8660888671875 L1251.7310791015625 1740.2838134765625 L1238.1488037109375 1753.8660888671875 L1224.5665283203125 1740.2838134765625 L1210.9842529296875 1753.8660888671875 L1197.4019775390625 1740.2838134765625 L1183.81982421875 1753.8660888671875 L1170.237548828125 1740.2838134765625 L1156.6552734375 1753.8660888671875 L1143.072998046875 1740.2838134765625 L1129.49072265625 1753.8660888671875 L1115.9085693359375 1740.2838134765625 L1102.3262939453125 1753.8660888671875 L1088.7440185546875 1740.2838134765625 L1075.161865234375 1753.8660888671875 L1061.57958984375 1740.2838134765625 L1047.997314453125 1753.8660888671875 L1034.4150390625 1740.2838134765625 L1020.8328247070312 1753.8660888671875 L1007.2506103515625 1740.2838134765625 L993.6683959960938 1753.8660888671875 L980.0861206054688 1740.2838134765625 L966.5038452148438 1753.8660888671875 L952.9215698242188 1740.2838134765625 L939.3394165039062 1753.8660888671875 L925.7571411132812 1740.2838134765625 L912.1748657226562 1753.8660888671875 L898.5925903320312 1740.2838134765625 L885.0103149414062 1753.8660888671875 L871.4281616210938 1740.2838134765625 L857.8458862304688 1753.8660888671875 L844.2636108398438 1740.2838134765625 L830.6814575195312 1753.8660888671875 L817.0991821289062 1740.2838134765625 L803.5169067382812 1753.8660888671875 L789.9346923828125 1740.2838134765625 L776.3524169921875 1753.8660888671875 L762.7702026367188 1740.2838134765625 L749.18798828125 1753.8660888671875 L735.605712890625 1740.2838134765625 L722.0234375 1753.8660888671875 L708.4412231445312 1740.2838134765625 L694.8590087890625 1753.8660888671875 L681.2767333984375 1740.2838134765625 L667.6944580078125 1753.8660888671875 L654.1122436523438 1740.2838134765625 L640.5299682617188 1753.8660888671875 L626.9476928710938 1740.2838134765625 L613.365478515625 1753.8660888671875 L599.783203125 1740.2838134765625 L586.2009887695312 1753.8660888671875 L572.6187744140625 1740.2838134765625 L559.0365600585938 1753.8660888671875 L545.4542846679688 1740.2838134765625 L531.8720092773438 1753.8660888671875 L518.289794921875 1740.2838134765625 L504.7075500488281 1753.8660888671875 L491.12530517578125 1740.2838134765625 L477.54302978515625 1753.8660888671875 L463.9608154296875 1740.2838134765625 L450.37860107421875 1753.8660888671875 L436.79632568359375 1740.2838134765625 L423.21405029296875 1753.8660888671875 L409.6318359375 1740.2838134765625 L396.0495910644531 1753.8660888671875 L382.4673156738281 1740.2838134765625 L368.8851013183594 1753.8660888671875 L355.3028564453125 1740.2838134765625 L341.7206115722656 1753.8660888671875 L328.13836669921875 1740.2838134765625 L314.5561218261719 1753.8660888671875 L300.973876953125 1740.2838134765625 L287.3916320800781 1753.8660888671875 L273.80938720703125 1740.2838134765625 L260.2271423339844 1753.8660888671875 L246.6448974609375 1740.2838134765625 L233.06265258789062 1753.8660888671875 L219.48040771484375 1740.2838134765625 L205.8981475830078 1753.8660888671875 L192.31590270996094 1740.2838134765625 L178.73365783691406 1753.8660888671875 L165.15142822265625 1740.2838134765625 L151.56918334960938 1753.8660888671875 L137.9869384765625 1740.2838134765625 L124.40469360351562 1753.8660888671875 L110.82244110107422 1740.2838134765625 L97.24019622802734 1753.8660888671875 L83.657958984375 1740.2838134765625 L70.07571411132812 1753.8660888671875 L56.49346923828125 1740.2838134765625 L42.91122055053711 1753.8660888671875 L29.328977584838867 1740.2838134765625 L15.746732711791992 1753.8660888671875 L2.16448974609375 1740.2838134765625 Z "/>              	    </defs>              	    <g style="mix-blend-mode:normal">              	      <use xmlns:xlink="http://www.w3.org/1999/xlink" xlink:href="#s-Union_2-45c13" fill="#8FD1FD" fill-opacity="1.0"/>              	    </g>              	  </g>              	</svg>