<svg xmlns="http://www.w3.org/2000/svg" width="116.37548828125" height="125.500732421875" viewBox="928.49951171875 568.74951171875 116.37548828125 125.500732421875" preserveAspectRatio="none">              	  <g>              	    <defs>              	      <path id="s-Union_1-45c13" d="M970.748779296875 568.74951171875 C970.4706420898438 568.74951171875 970.18798828125 568.807861328125 969.9185180664062 568.9310302734375 C968.9139404296875 569.3902587890625 968.4718017578125 570.576904296875 968.9310302734375 571.5814819335938 L984.6810302734375 606.0363159179688 C985.01708984375 606.7714233398438 985.7425537109375 607.205322265625 986.501220703125 607.205322265625 C986.7793579101562 607.205322265625 987.06201171875 607.14697265625 987.3314819335938 607.0238037109375 C988.3360595703125 606.5645751953125 988.7781982421875 605.3779296875 988.3189697265625 604.3733520507812 L972.5689697265625 569.9185180664062 C972.23291015625 569.1834106445312 971.5074462890625 568.74951171875 970.748779296875 568.74951171875 Z M948.6251220703125 579.875 C948.1065063476562 579.875 947.5881958007812 580.0755004882812 947.196533203125 580.4752197265625 C946.4234008789062 581.26416015625 946.436279296875 582.5303955078125 947.2252197265625 583.303466796875 L974.3502197265625 609.88330078125 C974.7394409179688 610.2647094726562 975.2448120117188 610.454833984375 975.7498779296875 610.454833984375 C976.2684936523438 610.454833984375 976.7868041992188 610.2543334960938 977.178466796875 609.8546142578125 C977.9515991210938 609.065673828125 977.938720703125 607.7994384765625 977.1497802734375 607.0263671875 L950.0247802734375 580.446533203125 C949.6355590820312 580.0651245117188 949.1301879882812 579.875 948.6251220703125 579.875 Z M930.4993286132812 603.2042846679688 C929.644287109375 603.2042846679688 928.8527221679688 603.757080078125 928.5883178710938 604.6170654296875 C928.2637329101562 605.6728515625 928.8564453125 606.7919311523438 929.9122314453125 607.1165161132812 L970.1622314453125 619.4915161132812 C970.3580322265625 619.5516967773438 970.5559692382812 619.5803833007812 970.7506713867188 619.5803833007812 C971.605712890625 619.5803833007812 972.3972778320312 619.027587890625 972.6616821289062 618.1676025390625 C972.9862670898438 617.11181640625 972.3935546875 615.9927368164062 971.3377685546875 615.6681518554688 L931.0877685546875 603.2931518554688 C930.8919677734375 603.2329711914062 930.6940307617188 603.2042846679688 930.4993286132812 603.2042846679688 Z M969.75048828125 624.4542846679688 C969.5485229492188 624.4542846679688 969.3430786132812 624.485107421875 969.1404418945312 624.5499877929688 L934.7654418945312 635.5499877929688 C933.7134399414062 635.8866577148438 933.1334838867188 637.0123901367188 933.4701538085938 638.0643920898438 C933.741943359375 638.9137573242188 934.528076171875 639.4553833007812 935.37451171875 639.4553833007812 C935.5764770507812 639.4553833007812 935.7819213867188 639.424560546875 935.9845581054688 639.3596801757812 L970.3595581054688 628.3596801757812 C971.4115600585938 628.0230102539062 971.9915161132812 626.8972778320312 971.6548461914062 625.8452758789062 C971.383056640625 624.9959106445312 970.596923828125 624.4542846679688 969.75048828125 624.4542846679688 Z M975.3945922851562 634.7047729492188 C974.95751953125 634.7047729492188 974.5174560546875 634.8473510742188 974.1491088867188 635.1409912109375 L944.1282348632812 659.0751342773438 C943.2645263671875 659.7637329101562 943.1226196289062 661.0220336914062 943.8111572265625 661.8857421875 C944.2061157226562 662.381103515625 944.7884521484375 662.6390380859375 945.3762817382812 662.6390380859375 C945.8133544921875 662.6390380859375 946.25341796875 662.4964599609375 946.6217651367188 662.2028198242188 L976.6426391601562 638.2686767578125 C977.50634765625 637.580078125 977.6482543945312 636.32177734375 976.959716796875 635.4580688476562 C976.5647583007812 634.9627075195312 975.982421875 634.7047729492188 975.3945922851562 634.7047729492188 Z M1013.6251220703125 642.454833984375 C1013.1079711914062 642.454833984375 1012.5911865234375 642.6541137695312 1012.1997680664062 643.0517578125 C1011.4248657226562 643.8388671875 1011.4347534179688 645.1051635742188 1012.221923828125 645.8800659179688 L1041.471923828125 674.6752319335938 C1041.8614501953125 675.0587158203125 1042.3682861328125 675.25 1042.8748779296875 675.25 C1043.39208984375 675.25 1043.9088134765625 675.0507202148438 1044.30029296875 674.653076171875 C1045.0751953125 673.865966796875 1045.065185546875 672.5996704101562 1044.278076171875 671.8247680664062 L1015.028076171875 643.0296020507812 C1014.6385498046875 642.6461181640625 1014.1317138671875 642.454833984375 1013.6251220703125 642.454833984375 Z M982.9175415039062 645.0792846679688 C982.1346435546875 645.0792846679688 981.3912963867188 645.5419311523438 981.0709228515625 646.3096313476562 L966.0292358398438 682.3547973632812 C965.6038818359375 683.3741455078125 966.0853881835938 684.5453491210938 967.1047973632812 684.9707641601562 C967.3565063476562 685.0758056640625 967.617431640625 685.1255493164062 967.8741455078125 685.1255493164062 C968.6570434570312 685.1255493164062 969.400390625 684.6629028320312 969.7207641601562 683.8952026367188 L984.762451171875 647.8500366210938 C985.1878051757812 646.8306884765625 984.706298828125 645.6594848632812 983.6868896484375 645.2340698242188 C983.4351806640625 645.1290283203125 983.1742553710938 645.0792846679688 982.9175415039062 645.0792846679688 Z M1005.7493286132812 646.4542846679688 C1005.4974975585938 646.4542846679688 1005.241455078125 646.502197265625 1004.993896484375 646.603271484375 C1003.9713134765625 647.0208129882812 1003.4808349609375 648.1882934570312 1003.8984375 649.2109375 L1020.1484375 689.006103515625 C1020.4649047851562 689.7811279296875 1021.212158203125 690.2505493164062 1022.0006713867188 690.2505493164062 C1022.2525024414062 690.2505493164062 1022.508544921875 690.20263671875 1022.756103515625 690.1015625 C1023.7786865234375 689.6840209960938 1024.2691650390625 688.5165405273438 1023.8515625 687.493896484375 L1007.6015625 647.69873046875 C1007.2850952148438 646.9237060546875 1006.537841796875 646.4542846679688 1005.7493286132812 646.4542846679688 Z M992.7525024414062 647.45458984375 C992.6507568359375 647.45458984375 992.5477294921875 647.4623413085938 992.4440307617188 647.4783935546875 C991.3524780273438 647.6473388671875 990.6045532226562 648.6692504882812 990.7735595703125 649.7608032226562 L997.3985595703125 692.5559692382812 C997.5514526367188 693.5438232421875 998.4030151367188 694.250244140625 999.3724975585938 694.250244140625 C999.4742431640625 694.250244140625 999.5772705078125 694.2424926757812 999.6809692382812 694.2264404296875 C1000.7725219726562 694.0574951171875 1001.5204467773438 693.0355834960938 1001.3514404296875 691.9440307617188 L994.7264404296875 649.1488647460938 C994.5735473632812 648.1610107421875 993.7219848632812 647.45458984375 992.7525024414062 647.45458984375 Z "/>              	    </defs>              	    <g style="mix-blend-mode:normal">              	      <use xmlns:xlink="http://www.w3.org/1999/xlink" xlink:href="#s-Union_1-45c13" fill="#0F032F" fill-opacity="1.0"/>              	    </g>              	  </g>              	</svg>