<svg xmlns="http://www.w3.org/2000/svg" width="30.0" height="29.817773818969727" viewBox="81.59738076955517 842.1219247316083 30.0 29.817773818969727" preserveAspectRatio="none">                          <g>                            <defs>                              <path id="s-Path_34-45c13" d="M111.59738076955517 857.1219247316083 C111.59738076955517 848.8376477097233 104.88165823847493 842.1219247316083 96.59738076955517 842.1219247316083 C88.31310374767025 842.1219247316083 81.59738076955517 848.8376472626885 81.59738076955517 857.1219247316083 C81.59738076955517 864.6088583503922 87.08269311219891 870.8144050573072 94.25363076955517 871.9396981333456 L94.25363076955517 861.4578622316083 L90.44503701955517 861.4578622316083 L90.44503701955517 857.1219247316083 L94.25363076955517 857.1219247316083 L94.25363076955517 853.8172371422013 C94.25363076955517 850.0578619276246 96.49302540451725 847.9812997316083 99.91935340792378 847.9812997316083 C101.56050579727133 847.9812997316083 103.27706826955517 848.2742684816083 103.27706826955517 848.2742684816083 L103.27706826955517 851.9656747316083 L101.38560352951725 851.9656747316083 C99.52226365089854 851.9656747316083 98.94113076955517 853.1219051887354 98.94113076955517 854.3081357066592 L98.94113076955517 857.1219247316083 L103.10128701955517 857.1219247316083 L103.10128701955517 861.4578622316083 L98.94113076955517 861.4578622316083 L98.94113065779646 871.9396981333456 C106.11212687671622 870.8144051690659 111.59738065779646 864.6088583503922 111.59738065779646 857.1219247316083 Z "/>                            </defs>                            <g style="mix-blend-mode:normal">                              <use xmlns:xlink="http://www.w3.org/1999/xlink" xlink:href="#s-Path_34-45c13" fill="#000000" fill-opacity="1.0"/>                            </g>                          </g>                        </svg>