<svg xmlns="http://www.w3.org/2000/svg" width="30.0" height="30.000244140625" viewBox="38.95728330258788 842.0306893621644 30.0 30.000244140625" preserveAspectRatio="none">                          <g>                            <defs>                              <path id="s-Path_37-45c13" d="M47.84313230161132 849.8390389715396 L58.4103396380371 864.1439706121646 L60.02899961118163 864.1439706121646 L49.58008603696288 849.8390389715396 Z M62.35706357602538 848.1237069402896 L55.97472409848632 855.6764413152896 L63.482994362158195 865.9542733465396 L57.60395078305663 865.9542733465396 L52.99943570737304 859.7208749090396 L47.73090390805663 865.9542733465396 L44.8079226458496 865.9542733465396 L51.63433103208007 857.8756600652896 L44.43174771909179 848.1237069402896 L50.45973233823241 848.1237069402896 L54.621910377783195 853.8212167059146 L59.43547086362304 848.1237069402896 Z M53.957367225927726 842.0306893621646 C45.67301969174804 842.0306893621646 38.95728330258788 848.7465096746646 38.95728330258788 857.0309335027896 C38.95728330258788 865.3153573309146 45.67301969174804 872.0309335027896 53.957367225927726 872.0309335027896 C62.241722389501945 872.0309335027896 68.95728330258788 865.3153573309146 68.95728330258788 857.0309335027896 C68.95728330258788 848.7465096746646 62.241722389501945 842.0306893621646 53.957367225927726 842.0306893621646 Z "/>                            </defs>                            <g style="mix-blend-mode:normal">                              <use xmlns:xlink="http://www.w3.org/1999/xlink" xlink:href="#s-Path_37-45c13" fill="#000105" fill-opacity="1.0"/>                            </g>                          </g>                        </svg>