<svg xmlns="http://www.w3.org/2000/svg" width="82.74980163574219" height="83.48139190673828" viewBox="566.8756290692252 114.82757556303204 82.74980163574219 83.48139190673828" preserveAspectRatio="none">              	  <g>              	    <defs>              	      <path id="s-Path_3-45c13" d="M597.052753298704 141.4486337047304 C597.052753298704 141.4486337047304 591.8537160945639 111.71103778995457 598.6238394670839 115.09609947621462 C605.3939628396041 118.48116116247468 615.5491478983843 134.95512803560692 615.5491478983843 134.95512803560692 C615.5491478983843 134.95512803560692 629.9920777597605 118.25549038339068 635.6338472368606 120.28652739514669 C641.2756167139606 122.31756440690273 628.1867115270884 148.0440332224791 624.8016498408284 150.30074101331914 C621.4165881545683 152.55744880415915 649.6254355400688 152.33177802507515 649.6254355400688 159.77891373484727 C649.6254355400688 167.22604944461938 623.4476251663242 167.67739100278737 624.8016498408283 168.5800741191234 C626.1556745153324 169.48275723545942 636.3108595741126 197.0145922837078 632.9257978878525 198.14294617912782 C629.5407362015925 199.27130007454784 613.0667693284602 174.44751437530746 613.0667693284602 174.44751437530746 C613.0667693284602 174.44751437530746 603.8142673860161 200.62532474905194 600.203534920672 198.14294617912788 C596.592802455328 195.66056760920378 597.052753298704 170.6111111308794 597.052753298704 170.6111111308794 C597.052753298704 170.6111111308794 569.2866381861636 174.44751437530755 567.0299303953235 168.58007411912342 C564.7732226044835 162.7126338629393 588.0173128501358 156.1681812695032 588.0173128501358 156.1681812695032 C588.0173128501358 156.1681812695032 567.0299303953235 139.24287283820306 569.9636505234156 134.95512803560695 C572.8973706515076 130.66738323301084 597.052753298704 141.4486337047304 597.052753298704 141.4486337047304 Z "/>              	    </defs>              	    <g style="mix-blend-mode:normal">              	      <use xmlns:xlink="http://www.w3.org/1999/xlink" xlink:href="#s-Path_3-45c13" fill="#FAD01D" fill-opacity="1.0"/>              	    </g>              	  </g>              	</svg>